<svg xmlns="http://www.w3.org/2000/svg" width="32" height="32" viewBox="0 0 32 32">
    <g fill="none" fill-rule="evenodd">
        <path fill="#00C853" fill-rule="nonzero" d="M29.941 13.883h-.684v-3.1c0-1.451-1.18-2.631-2.631-2.631h-1.664V6.63C24.962 5.18 23.782 4 22.33 4H2.63A2.634 2.634 0 0 0 0 6.63v19.558c0 1.45 1.18 2.63 2.631 2.63h23.995c1.45 0 2.63-1.18 2.63-2.63v-3.645h.685A2.06 2.06 0 0 0 32 20.485V15.94a2.06 2.06 0 0 0-2.059-2.058zM1.826 6.63c0-.444.361-.805.805-.805h19.7c.444 0 .805.361.805.805v1.52H2.631c-.28 0-.55.046-.805.128V6.63zm25.605 19.557c0 .444-.361.805-.805.805H2.63a.806.806 0 0 1-.805-.805V10.783c0-.444.361-.805.805-.805h23.995c.444 0 .805.36.805.805v3.1h-4.896a2.06 2.06 0 0 0-2.059 2.058v4.544a2.06 2.06 0 0 0 2.059 2.058h4.896v3.645zm2.743-5.703a.233.233 0 0 1-.233.232h-7.406a.233.233 0 0 1-.233-.232V15.94c0-.128.104-.232.233-.232h7.406c.128 0 .233.104.233.232v4.544zM15.032 15.23c.075-1.058-.768-1.974-1.887-2.05-1.125-.074-2.096.724-2.175 1.781-.031.46.106.862.246 1.384l.368 1.357 1.723-.633c.826-.315 1.655-.933 1.725-1.84zm-.07 3.106c-.485.005-.898.17-1.435.35l-1.402.463.816 1.564c.408.752 1.132 1.475 2.094 1.462 1.127-.02 2.02-.896 2-1.956-.021-1.06-.949-1.903-2.073-1.883zm-6.422.45l1.757-.536-.619-1.268c-.235-.49-.395-.886-.725-1.224-.768-.774-2.053-.816-2.884-.092a1.846 1.846 0 0 0-.096 2.712c.656.666 1.717.654 2.567.407zm2.299.912l-1.388.472c-.544.181-.969.297-1.354.578-.888.655-1.043 1.86-.353 2.696.692.836 1.972.985 2.856.334.763-.562.843-1.555.655-2.377l-.416-1.703z"/>
        <path d="M0 0h32v32H0z"/>
    </g>
</svg>
